<?xml version="1.0" encoding="utf-8"?>
<!-- Generator: Adobe Illustrator 22.0.1, SVG Export Plug-In . SVG Version: 6.00 Build 0)  -->
<svg version="1.1" id="Layer_1" xmlns="http://www.w3.org/2000/svg" xmlns:xlink="http://www.w3.org/1999/xlink" x="0px" y="0px"
	 viewBox="0 0 462.7 462.7" style="enable-background:new 0 0 462.7 462.7;" xml:space="preserve">
<style type="text/css">
	.st0{fill:#FFFFFF;}
</style>
<path class="st0" d="M231.4,450.2l-8.1-0.1c-1.3,0-2.7,0-4-0.1l-4-0.3l-4-0.3l-2-0.1c-0.7-0.1-1.3-0.1-2-0.2l-8-0.9
	c-1.3-0.1-2.7-0.4-4-0.6l-4-0.7l-4-0.7l-3.9-0.9c-2.6-0.6-5.3-1.1-7.9-1.8l-7.8-2.1c-1.3-0.3-2.6-0.8-3.9-1.2l-3.8-1.3l-3.8-1.3
	c-1.3-0.5-2.5-1-3.8-1.4c-2.5-1-5.1-1.9-7.5-2.9l-7.4-3.2c-9.8-4.6-19.3-9.7-28.4-15.6c-9-6-17.7-12.5-25.8-19.7
	c-8.1-7.2-15.7-15-22.7-23.3c-7-8.3-13.3-17.2-19.1-26.4c-5.7-9.3-10.7-19-15-29l-3.1-7.6c-1-2.5-1.8-5.1-2.8-7.7
	c-0.4-1.3-0.9-2.6-1.3-3.9l-1.2-3.9l-1.2-3.9c-0.4-1.3-0.8-2.6-1.1-3.9l-1.9-8c-0.4-1.3-0.6-2.7-0.8-4l-0.8-4l-0.8-4l-0.6-4.1
	c-0.4-2.7-0.8-5.4-1.1-8.1L9,245l-0.2-2l-0.1-2l-0.2-4.1c-0.3-5.5-0.1-10.9-0.1-16.4c0.1-2.7,0.3-5.5,0.5-8.2
	c0.1-1.4,0.2-2.7,0.3-4.1l0.5-4.1l0.5-4.1c0.2-1.4,0.3-2.7,0.5-4.1l1.4-8.1c0.2-1.4,0.5-2.7,0.8-4l0.9-4l0.9-4l1.1-4
	c0.7-2.6,1.4-5.3,2.2-7.9l2.5-7.8c0.4-1.3,0.9-2.6,1.4-3.9l1.5-3.9l1.5-3.9l1.6-3.8l1.7-3.8c0.6-1.3,1.1-2.5,1.7-3.8l3.7-7.4
	c5.2-9.7,10.9-19.2,17.4-28.1c6.5-8.9,13.7-17.4,21.3-25.3C80,64.3,88.3,57,97,50.2c8.8-6.7,18.2-12.7,27.8-18.1l7.4-3.9
	c1.2-0.7,2.5-1.2,3.7-1.8l3.8-1.8l3.8-1.7l3.9-1.6l3.9-1.6c1.3-0.5,2.6-1.1,3.9-1.5l7.9-2.8c2.6-0.9,5.3-1.6,8-2.4l4-1.2l4.1-1
	l4.1-1c1.4-0.3,2.7-0.7,4.1-0.9l8.2-1.6c1.4-0.3,2.7-0.5,4.1-0.7l4.1-0.6l4.1-0.6c1.4-0.2,2.8-0.3,4.2-0.4c2.8-0.2,5.5-0.5,8.3-0.7
	c5.6-0.2,11.1-0.5,16.7-0.3l4.2,0.1l2.1,0l2.1,0.1l8.4,0.5c2.8,0.2,5.5,0.6,8.3,0.9l4.2,0.5l4.1,0.7l4.1,0.7
	c1.4,0.2,2.8,0.4,4.1,0.8l8.2,1.8c1.4,0.3,2.7,0.7,4.1,1l4.1,1.1l4.1,1.1c1.3,0.4,2.7,0.9,4,1.3c2.7,0.9,5.3,1.7,8,2.7l7.9,3
	c10.4,4.2,20.5,9.1,30.2,14.8c9.6,5.7,18.9,12.1,27.7,19.1c8.7,7.1,17,14.8,24.7,23c7.6,8.3,14.7,17.1,21.1,26.4
	c6.4,9.3,12,19.1,17,29.2l3.6,7.7c1.2,2.6,2.2,5.2,3.3,7.8c0.5,1.3,1.1,2.6,1.6,3.9l1.4,4l1.4,4c0.5,1.3,0.9,2.7,1.3,4l2.4,8.1
	c0.8,2.7,1.4,5.5,2.1,8.2l1,4.1l0.8,4.2l0.8,4.2c0.3,1.4,0.6,2.8,0.7,4.2l1.2,8.4c0.1,0.7,0.2,1.4,0.3,2.1l0.2,2.1l0.4,4.2l0.4,4.2
	c0.1,1.4,0.1,2.8,0.2,4.2l0.3,8.5c0.3,6.9-5.1,12.7-12,12.9c-6.9,0.3-12.7-5.1-12.9-12c0-0.1,0-0.2,0-0.2l0-0.7l-0.1-7.6
	c0-1.3,0-2.5-0.1-3.8l-0.2-3.8l-0.2-3.8l-0.1-1.9c0-0.6-0.1-1.3-0.2-1.9l-0.9-7.6c-0.1-1.3-0.4-2.5-0.6-3.8l-0.6-3.8l-0.6-3.8
	l-0.8-3.7c-0.6-2.5-1-5-1.7-7.4l-2-7.4c-0.3-1.2-0.7-2.4-1.1-3.6l-1.2-3.6l-1.2-3.6c-0.4-1.2-0.9-2.4-1.3-3.6
	c-0.9-2.4-1.8-4.8-2.8-7.1l-3.1-7c-4.3-9.2-9.2-18.2-14.7-26.8c-5.6-8.5-11.8-16.7-18.5-24.4c-6.8-7.6-14.2-14.8-22-21.4
	c-7.9-6.6-16.2-12.6-24.9-18c-8.7-5.4-17.9-10.1-27.3-14.2l-7.1-2.9c-2.4-1-4.8-1.7-7.3-2.6c-1.2-0.4-2.4-0.9-3.6-1.3l-3.7-1.1
	l-3.7-1.1c-1.2-0.4-2.5-0.8-3.7-1l-7.5-1.8c-1.2-0.3-2.5-0.5-3.8-0.8l-3.8-0.7l-3.8-0.7l-3.8-0.5c-2.6-0.3-5.1-0.8-7.7-1l-7.7-0.7
	l-1.9-0.2l-1.9-0.1l-3.9-0.1c-5.2-0.3-10.3-0.1-15.5-0.1c-2.6,0.1-5.2,0.3-7.7,0.5c-1.3,0.1-2.6,0.1-3.9,0.3l-3.9,0.4l-3.9,0.4
	c-1.3,0.1-2.6,0.3-3.8,0.5l-7.7,1.3c-1.3,0.2-2.5,0.5-3.8,0.8l-3.8,0.8l-3.8,0.8l-3.8,1c-2.5,0.7-5,1.3-7.5,2.1l-7.4,2.4
	c-1.2,0.4-2.5,0.8-3.7,1.3l-3.6,1.4l-3.6,1.4l-3.6,1.6l-3.6,1.6c-1.2,0.5-2.4,1-3.5,1.6l-7,3.5c-9.2,4.9-18.1,10.3-26.6,16.4
	C96.6,67.1,88.6,73.8,81,81c-7.4,7.3-14.4,15.2-20.7,23.5c-6.3,8.3-12,17.2-17.1,26.3l-3.7,6.9c-0.6,1.1-1.2,2.4-1.7,3.5l-1.7,3.6
	l-1.7,3.6L33,152l-1.5,3.6c-0.5,1.2-1,2.4-1.4,3.7l-2.6,7.4c-0.8,2.5-1.5,5-2.3,7.5l-1.1,3.8l-0.9,3.8l-0.9,3.8
	c-0.3,1.3-0.6,2.5-0.9,3.8l-1.5,7.7c-0.3,1.3-0.4,2.6-0.6,3.9l-0.5,3.9l-0.5,3.9c-0.2,1.3-0.2,2.6-0.4,3.9c-0.2,2.6-0.5,5.2-0.7,7.9
	c-0.2,5.3-0.5,10.5-0.3,15.8l0.1,4l0,2l0.1,2l0.5,7.9c0.2,2.6,0.6,5.2,0.9,7.9l0.5,3.9l0.6,3.9l0.6,3.9c0.2,1.3,0.4,2.6,0.7,3.9
	l1.7,7.7c0.3,1.3,0.6,2.6,1,3.8l1,3.8l1,3.8c0.4,1.3,0.8,2.5,1.2,3.8c0.8,2.5,1.6,5.1,2.5,7.5l2.8,7.4c4,9.8,8.6,19.4,13.9,28.5
	c5.4,9.1,11.4,17.9,18,26.2c6.7,8.3,14,16.1,21.7,23.4c7.8,7.2,16.2,13.9,24.9,20c8.8,6,18.1,11.4,27.6,16.1l7.3,3.4
	c2.4,1.1,4.9,2,7.4,3.1c1.2,0.5,2.5,1,3.7,1.5l3.8,1.3l3.8,1.3c1.3,0.4,2.5,0.9,3.8,1.3l7.7,2.3c2.6,0.7,5.2,1.3,7.8,2l3.9,0.9
	l3.9,0.8l3.9,0.8c1.3,0.2,2.6,0.5,4,0.7l8,1.1c0.7,0.1,1.3,0.2,2,0.3l2,0.2l4,0.4l4,0.4c1.3,0.1,2.7,0.1,4,0.2L231.4,450.2z"/>
</svg>
